<svg xmlns="http://www.w3.org/2000/svg" viewBox="0 0 248.98 25.16">
    <defs />
    <defs></defs>
    <g fill="#fff" id="Layer_2" data-name="Layer 2">
      <g id="Layer_2-2" data-name="Layer 2">
        <path
          d="M16.41 22.17H2.47v-.51h13.42v-8.57H2.22V2.99h13.93v.51H2.73v9.08h13.68v9.59z"
          class="cls-1"
        />
        <path
          d="M18.31 24.08H.56v-4.33h13.43V15H.31V1.09h17.75v4.32H4.64v5.26h13.67v13.41z"
          class="cls-1"
        />
        <path
          d="M16.71 22.48H2.16v-1.13h13.43V13.4H1.91V2.69h14.55v1.12H3.04v8.46h13.67v10.21z"
          class="cls-1"
        />
        <path
          d="M18.62 24.39H.26v-4.95h13.42v-4.13H0V.78h18.37v4.94H4.95v4.64h13.67v14.03zM39.37 22.17H25.05V3h14.32zm-13.8-.51h13.29V3.51H25.57z"
          class="cls-1"
        />
        <path d="M41.28 24.08H23.15v-23h18.13zm-13.81-4.33H37V5.41h-9.53z" class="cls-1" />
        <path d="M39.68 22.48H24.75V2.69h14.93zm-13.81-1.13h12.68V3.81H25.87z" class="cls-1" />
        <path
          d="M41.59 24.39H22.84V.78h18.75zm-13.81-4.95h8.86V5.72h-8.86zM57.73 12.84H48V3h9.71zm-9.2-.51h8.69V3.51h-8.69z"
          class="cls-1"
        />
        <path d="M59.64 14.74H46.11V1.09h13.53zm-9.2-4.32h4.88v-5h-4.88z" class="cls-1" />
        <path d="M58 13.15H47.71V2.69H58zM48.84 12h8.07V3.81h-8.07z" class="cls-1" />
        <path d="M60 15.05H45.8V.78H60zm-9.2-4.94H55V5.72h-4.25z" class="cls-1" />
        <path d="M62.27 22.17H48v-9.84h14.27zm-13.74-.51h13.23v-8.82H48.53z" class="cls-1" />
        <path d="M64.18 24.08H46.11V10.42h18.07zm-13.74-4.33h9.41v-5h-9.41z" class="cls-1" />
        <path d="M62.58 22.48H47.71V12h14.87zm-13.74-1.13h12.61v-8.2H48.84z" class="cls-1" />
        <path
          d="M64.49 24.39H45.8V10.11h18.69zm-13.74-4.95h8.79v-4.39h-8.79zM71.45 12.33h13.68v.51H71.45z"
          class="cls-1"
        />
        <path d="M69.55 10.42h17.49v4.33H69.55z" class="cls-1" />
        <path d="M71.15 12.02h14.29v1.13H71.15z" class="cls-1" />
        <path d="M69.24 10.11h18.11v4.95H69.24z" class="cls-1" />
        <path d="M85.13 22.17H71.2V2.99h13.93v.51H71.71v18.16h13.42v.51z" class="cls-1" />
        <path d="M87.04 24.08H69.29V1.09h17.75v4.32H73.62v14.34h13.42v4.33z" class="cls-1" />
        <path d="M85.44 22.48H70.89V2.69h14.55v1.12H72.02v17.54h13.42v1.13z" class="cls-1" />
        <path
          d="M87.35 24.39H68.98V.78h18.37v4.94H73.93v13.72h13.42v4.95zM94.82 21.91h-.51V3h9.59v9.85h-9.08zm0-9.58h8.57V3.51h-8.57z"
          class="cls-1"
        />
        <path
          d="M96.73 23.82h-4.32V1.09h13.4v13.65h-9.08zm0-13.4h4.75v-5h-4.75z"
          class="cls-1"
        />
        <path d="M95.13 22.22H94V2.69h10.21v10.46h-9.08zm0-10.2h8V3.81h-8z" class="cls-1" />
        <path d="M97 24.13h-4.9V.78h14v14.27H97zm0-14h4.13V5.72H97z" class="cls-1" />
        <path d="M108.5 21.91h-.51v-9.07h-4.35v-.52h4.86v9.59z" class="cls-1" />
        <path d="M110.41 23.82h-4.33v-9.08h-4.34v-4.32h8.67v13.4z" class="cls-1" />
        <path d="M108.81 22.22h-1.13v-9.08h-4.34v-1.12h5.47v10.2z" class="cls-1" />
        <path
          d="M110.72 24.13h-4.95v-9.08h-4.34v-4.94h9.29v14.02zM246.77 22.17h-13.94v-.51h13.42v-8.57h-13.67V2.99h13.93v.51h-13.42v9.08h13.68v9.59z"
          class="cls-1"
        />
        <path
          d="M248.67 24.08h-17.74v-4.33h13.42V15h-13.68V1.09h17.75v4.32H235v5.26h13.67v13.41z"
          class="cls-1"
        />
        <path
          d="M247.07 22.48h-14.54v-1.13h13.42V13.4h-13.68V2.69h14.55v1.12H233.4v8.46h13.67v10.21z"
          class="cls-1"
        />
        <path
          d="M248.98 24.39h-18.36v-4.95h13.42v-4.13h-13.68V.78h18.37v4.94h-13.42v4.64h13.67v14.03zM186.82 12.33h13.68v.51h-13.68z"
          class="cls-1"
        />
        <path d="M184.91 10.42h17.49v4.33h-17.49z" class="cls-1" />
        <path d="M186.51 12.02h14.29v1.13h-14.29z" class="cls-1" />
        <path d="M184.6 10.11h18.11v4.95H184.6z" class="cls-1" />
        <path d="M200.49 22.17h-13.93V2.99h13.93v.51h-13.42v18.16h13.42v.51z" class="cls-1" />
        <path d="M202.4 24.08h-17.75V1.09h17.75v4.32h-13.42v14.34h13.42v4.33z" class="cls-1" />
        <path d="M200.8 22.48h-14.55V2.69h14.55v1.12h-13.42v17.54h13.42v1.13z" class="cls-1" />
        <path
          d="M202.71 24.39h-18.37V.78h18.37v4.94h-13.42v13.72h13.42v4.95zM131.85 21.91h-.51V3h14.06v9.85h-13.55zm0-9.58h13V3.51h-13z"
          class="cls-1"
        />
        <path
          d="M133.76 23.82h-4.33V1.09h17.88v13.65h-13.55zm0-13.4H143v-5h-9.22z"
          class="cls-1"
        />
        <path
          d="M132.16 22.22H131V2.69h14.68v10.46h-13.52zm0-10.2h12.42V3.81h-12.42z"
          class="cls-1"
        />
        <path
          d="M134.07 24.13h-4.95V.78h18.5v14.27h-13.55zm0-14h8.6V5.72h-8.6zM154.35 3.25h.51v18.66h-.51z"
          class="cls-1"
        />
        <path d="M152.44 1.34h4.33v22.48h-4.33z" class="cls-1" />
        <path d="M154.04 2.94h1.13v19.28h-1.13z" class="cls-1" />
        <path
          d="M152.13 1.03h4.95v23.1h-4.95zM223.54 22.17h-14.01V3.25h.51v18.41h13.5v.51z"
          class="cls-1"
        />
        <path d="M225.45 24.08h-17.83V1.34h4.33v18.41h13.5v4.33z" class="cls-1" />
        <path d="M223.85 22.48h-14.63V2.94h1.13v18.41h13.5v1.13z" class="cls-1" />
        <path d="M225.76 24.39h-18.45V1.03h4.94v18.41h13.51v4.95z" class="cls-1" />
        <path
          d="M159.16 12.33h23.11v.51h-23.11z"
          class="cls-1"
          transform="rotate(-53.8 170.3383887 12.3070857)"
        />
        <path
          d="M157.25 10.42h26.93v4.33h-26.93z"
          class="cls-1"
          transform="rotate(-53.85 170.7217655 12.5734911)"
        />
        <path
          d="M158.85 12.02h23.73v1.13h-23.73z"
          class="cls-1"
          transform="rotate(-53.92 170.7117901 12.5800987)"
        />
        <path d="M164.59 25.16l-4-2.91L176.84 0l3.99 2.92-16.24 22.24z" class="cls-1" />
        <path
          d="M170.46 1.02h.51v23.11h-.51z"
          class="cls-1"
          transform="rotate(-36.15 170.7217347 12.5752114)"
        />
        <path
          d="M168.55-.88h4.33v26.93h-4.33z"
          class="cls-1"
          transform="rotate(-36.15 170.7217347 12.5752114)"
        />
        <path
          d="M170.15.72h1.13v23.73h-1.13z"
          class="cls-1"
          transform="rotate(-36.15 170.7370549 12.5802114)"
        />
        <path d="M176.84 25.16L160.59 2.92l4-2.92 16.24 22.24-3.99 2.92z" class="cls-1" />
      </g>
    </g>
  </svg>
